<svg width="23" height="22" viewBox="0 0 23 22" fill="none" xmlns="http://www.w3.org/2000/svg">
<g clip-path="url(#clip0_4111_3414)">
<path d="M7.16957 13.4996L11.5001 5.99934L12.3043 6.01313L13.6189 6.06379L18.0101 7.58386L21.3002 5.99934C19.4794 2.43805 15.7745 0 11.5001 0C7.61735 0 4.20468 2.01184 2.24707 5.04982V5.05721L2.57991 10.6876L7.16957 13.4996Z" fill="#DB4437"/>
<path d="M7.16948 13.5L2.24698 5.05762L2.2447 5.05371C1.14071 6.76838 0.5 8.80952 0.5 11.0004C0.5 16.9008 5.14578 21.7157 10.9789 21.9878L14.9099 19.3808L15.8297 13.5015L7.16948 13.5Z" fill="#0F9D58"/>
<path d="M21.2997 5.99902H11.4996L15.8301 13.4993L15.8293 13.5008L10.9785 21.9871C10.9798 21.9871 10.9811 21.9872 10.9823 21.9872C11.1538 21.9952 11.3262 21.9997 11.4996 21.9997C17.5748 21.9997 22.4996 17.0748 22.4996 10.9997C22.4996 9.19895 22.0668 7.49932 21.2997 5.99902Z" fill="#FFCD40"/>
<path d="M11.4997 16.0003C14.2615 16.0003 16.5003 13.7615 16.5003 10.9997C16.5003 8.2379 14.2615 5.99902 11.4997 5.99902C8.7379 5.99902 6.49902 8.2379 6.49902 10.9997C6.49902 13.7615 8.7379 16.0003 11.4997 16.0003Z" fill="#F1F1F1"/>
<path d="M11.4995 15.001C13.709 15.001 15.5001 13.2099 15.5001 11.0005C15.5001 8.79109 13.709 7 11.4995 7C9.29012 7 7.49902 8.79109 7.49902 11.0005C7.49902 13.2099 9.29012 15.001 11.4995 15.001Z" fill="#4285F4"/>
</g>
<defs>
<clipPath id="clip0_4111_3414">
<rect width="22" height="22" fill="white" transform="translate(0.5)"/>
</clipPath>
</defs>
</svg>
