<svg width="23" height="22" viewBox="0 0 23 22" fill="none" xmlns="http://www.w3.org/2000/svg">
<g clip-path="url(#clip0_4111_3425)">
<path d="M21.3779 7.37841C20.9146 6.26403 19.9763 5.06098 19.2395 4.68075C19.8391 5.85635 20.1862 7.03565 20.3188 7.91576C20.3188 7.91748 20.3195 7.92178 20.3209 7.93351C19.1156 4.92928 17.0718 3.71788 15.4029 1.08021C15.3187 0.946841 15.2341 0.813125 15.1518 0.672147C15.1099 0.600176 15.0707 0.526615 15.0345 0.451636C14.9651 0.317748 14.9117 0.176254 14.8751 0.0299916C14.8756 0.0156403 14.8651 0.00326556 14.8509 0.00141794C14.8443 -0.000472647 14.8374 -0.000472647 14.8308 0.00141794C14.8293 0.00193356 14.8271 0.00369524 14.8255 0.00429679C14.8231 0.00524209 14.8071 0.014781 14.8078 0.0139216C12.1301 1.58212 11.2361 4.47184 11.1526 5.92326C10.0834 5.99677 9.06102 6.3907 8.21893 7.05374C8.13076 6.97928 8.0386 6.90967 7.94282 6.84526C7.69988 5.99527 7.68953 5.09561 7.91292 4.24025C6.81792 4.73884 5.96621 5.52696 5.34704 6.22287H5.3421C4.91956 5.68766 4.94933 3.92211 4.97344 3.55349C4.96837 3.53063 4.65823 3.71449 4.61758 3.7422C4.2447 4.00835 3.8961 4.30697 3.57587 4.6346C3.21145 5.00413 2.8785 5.40343 2.58047 5.8283C2.58047 5.82881 2.58017 5.82946 2.58 5.82997C2.58 5.82941 2.5803 5.82881 2.58047 5.8283C1.89505 6.79963 1.40891 7.89716 1.1502 9.05751C1.14508 9.08062 1.14079 9.10456 1.13585 9.12784C1.11578 9.22169 1.04359 9.69115 1.03096 9.79316C1.02997 9.80102 1.02954 9.80854 1.0286 9.81641C0.935229 10.3018 0.877437 10.7933 0.855609 11.2871C0.855609 11.3052 0.854492 11.3232 0.854492 11.3415C0.85475 17.2279 5.62724 21.9996 11.5141 21.9996C16.7863 21.9996 21.1638 18.1724 22.0208 13.1452C22.0388 13.0088 22.0533 12.8716 22.0692 12.734C22.2811 10.9062 22.0457 8.98498 21.3779 7.37841ZM9.092 15.7211C9.14184 15.7449 9.18868 15.771 9.23989 15.7938C9.24204 15.7953 9.24497 15.7969 9.24711 15.7983C9.19499 15.7734 9.1433 15.7477 9.092 15.7211ZM20.3217 7.93613L20.3203 7.92577C20.3208 7.92956 20.3215 7.93351 20.3221 7.93725L20.3217 7.93613Z" fill="url(#paint0_linear_4111_3425)"/>
<path d="M21.3777 7.37929C20.9144 6.26492 19.9762 5.06186 19.2393 4.68164C19.839 5.85724 20.1861 7.03654 20.3187 7.91665C20.3187 7.91407 20.3192 7.9188 20.3203 7.92666C20.3208 7.93044 20.3215 7.9344 20.3221 7.93814C21.3278 10.6646 20.7799 13.4371 19.9903 15.1313C18.7689 17.7526 15.8115 20.4391 11.1827 20.3081C6.18153 20.1665 1.77564 16.4557 0.953189 11.5955C0.803317 10.8291 0.953189 10.4399 1.0286 9.8176C0.936733 10.2973 0.901757 10.4359 0.855609 11.2883C0.855609 11.3064 0.854492 11.3244 0.854492 11.3427C0.854621 17.2288 5.62711 22.0005 11.514 22.0005C16.7861 22.0005 21.1637 18.1733 22.0207 13.1461C22.0387 13.0097 22.0532 12.8725 22.0691 12.7349C22.281 10.907 22.0456 8.98587 21.3777 7.37929Z" fill="url(#paint1_radial_4111_3425)"/>
<path d="M21.3777 7.37929C20.9144 6.26492 19.9762 5.06186 19.2393 4.68164C19.839 5.85724 20.1861 7.03654 20.3187 7.91665C20.3187 7.91407 20.3192 7.9188 20.3203 7.92666C20.3208 7.93044 20.3215 7.9344 20.3221 7.93814C21.3278 10.6646 20.7799 13.4371 19.9903 15.1313C18.7689 17.7526 15.8115 20.4391 11.1827 20.3081C6.18153 20.1665 1.77564 16.4557 0.953189 11.5955C0.803317 10.8291 0.953189 10.4399 1.0286 9.8176C0.936733 10.2973 0.901757 10.4359 0.855609 11.2883C0.855609 11.3064 0.854492 11.3244 0.854492 11.3427C0.854621 17.2288 5.62711 22.0005 11.514 22.0005C16.7861 22.0005 21.1637 18.1733 22.0207 13.1461C22.0387 13.0097 22.0532 12.8725 22.0691 12.7349C22.281 10.907 22.0456 8.98587 21.3777 7.37929Z" fill="url(#paint2_radial_4111_3425)"/>
<path d="M16.1973 8.63137C16.2205 8.6477 16.2416 8.66394 16.2635 8.68014C15.996 8.20534 15.6629 7.77068 15.274 7.38891C11.9605 4.07587 14.8093 0.0135547 14.8101 0.0126953C12.1324 1.5809 11.2358 4.47182 11.1523 5.92319C11.2765 5.9146 11.4004 5.90415 11.5268 5.90415C13.5249 5.9042 15.2653 7.00284 16.1973 8.63137Z" fill="url(#paint3_radial_4111_3425)"/>
<path d="M11.5335 9.29305C11.516 9.5582 10.5793 10.4726 10.2517 10.4726C7.22054 10.4726 6.72852 12.306 6.72852 12.306C6.86279 13.8499 7.93763 15.1213 9.23943 15.7941C9.29881 15.8248 9.35893 15.8525 9.41908 15.8799C9.5222 15.9256 9.62662 15.9682 9.73219 16.0079C10.1785 16.1659 10.6461 16.2561 11.1192 16.2754C16.4319 16.5246 17.4612 9.92416 13.6272 8.00745C14.609 7.83669 15.6282 8.23157 16.1974 8.63138C15.2654 7.00299 13.525 5.9043 11.5269 5.9043C11.4005 5.9043 11.2767 5.91474 11.1524 5.92333C10.0832 5.99685 9.06086 6.39078 8.21877 7.05382C8.38128 7.19132 8.56475 7.37513 8.95125 7.75587C9.67431 8.46849 11.5295 9.20647 11.5335 9.29305Z" fill="url(#paint4_radial_4111_3425)"/>
<path d="M11.5335 9.29305C11.516 9.5582 10.5793 10.4726 10.2517 10.4726C7.22054 10.4726 6.72852 12.306 6.72852 12.306C6.86279 13.8499 7.93763 15.1213 9.23943 15.7941C9.29881 15.8248 9.35893 15.8525 9.41908 15.8799C9.5222 15.9256 9.62662 15.9682 9.73219 16.0079C10.1785 16.1659 10.6461 16.2561 11.1192 16.2754C16.4319 16.5246 17.4612 9.92416 13.6272 8.00745C14.609 7.83669 15.6282 8.23157 16.1974 8.63138C15.2654 7.00299 13.525 5.9043 11.5269 5.9043C11.4005 5.9043 11.2767 5.91474 11.1524 5.92333C10.0832 5.99685 9.06086 6.39078 8.21877 7.05382C8.38128 7.19132 8.56475 7.37513 8.95125 7.75587C9.67431 8.46849 11.5295 9.20647 11.5335 9.29305Z" fill="url(#paint5_radial_4111_3425)"/>
<path d="M7.72152 6.6989C7.79576 6.74681 7.86941 6.79558 7.94246 6.84525C7.69952 5.99526 7.68916 5.0956 7.91255 4.24023C6.81756 4.73883 5.96585 5.52695 5.34668 6.22286C5.3979 6.22144 6.94405 6.1936 7.72152 6.6989Z" fill="url(#paint6_radial_4111_3425)"/>
<path d="M0.953088 11.5949C1.77554 16.4552 6.18142 20.166 11.1826 20.3076C15.8114 20.4386 18.7688 17.7519 19.9902 15.1308C20.7797 13.4365 21.3277 10.6643 20.3219 7.93765L20.3216 7.93649L20.3202 7.92618C20.3191 7.91827 20.3184 7.91359 20.3186 7.91617C20.3186 7.91788 20.3193 7.92218 20.3207 7.93391C20.6988 10.4027 19.443 12.7944 17.4798 14.4116L17.4739 14.4255C13.6486 17.5401 9.98808 16.3047 9.24693 15.7989C9.19485 15.7739 9.14307 15.7481 9.09168 15.7216C6.86148 14.6559 5.94016 12.624 6.13768 10.8816C4.25453 10.8816 3.61241 9.29329 3.61241 9.29329C3.61241 9.29329 5.30316 8.08778 7.53148 9.13624C9.59527 10.1073 11.5335 9.29337 11.5337 9.29329C11.5297 9.20671 9.6745 8.46873 8.95126 7.75615C8.56481 7.37541 8.38129 7.19186 8.21879 7.0541C8.13062 6.97964 8.03845 6.91003 7.94268 6.84562C7.86955 6.79604 7.7959 6.74727 7.72174 6.69927C6.94432 6.19397 5.39812 6.22181 5.3469 6.22314H5.34196C4.91941 5.68794 4.94919 3.92238 4.97329 3.55372C4.96822 3.53086 4.65808 3.71472 4.61743 3.74243C4.24456 4.00858 3.89596 4.30725 3.57572 4.63484C3.21131 5.00445 2.87835 5.40383 2.58033 5.82878C2.58033 5.8293 2.58002 5.82994 2.57985 5.83046C2.57985 5.8299 2.58015 5.8293 2.58033 5.82878C1.8949 6.80012 1.40876 7.89765 1.15005 9.058C1.14494 9.08103 0.766349 10.7364 0.953088 11.5949Z" fill="url(#paint7_radial_4111_3425)"/>
<path d="M15.2742 7.38926C15.6631 7.77103 15.9963 8.2057 16.2638 8.68049C16.3225 8.72458 16.3773 8.76853 16.4238 8.81142C18.8403 11.038 17.5742 14.1871 17.4797 14.4116C19.4429 12.7944 20.6987 10.4027 20.3206 7.93388C19.1153 4.9297 17.0715 3.7183 15.4026 1.08063C15.3184 0.947258 15.2338 0.813542 15.1515 0.672564C15.1096 0.600593 15.0704 0.527032 15.0342 0.452053C14.9648 0.318165 14.9114 0.176671 14.8748 0.0304085C14.8753 0.0160572 14.8648 0.00368246 14.8506 0.00183484C14.844 -5.57512e-05 14.8402 -0.000786206 14.8336 0.00110438C14.8321 0.00162 14.8268 0.00411214 14.8252 0.00471369C14.8229 0.00565898 14.8199 0.00785034 14.8174 0.00913938C14.4115 0.218049 11.9608 4.07622 15.2742 7.38926Z" fill="url(#paint8_radial_4111_3425)"/>
<path d="M16.4244 8.81127C16.3778 8.76839 16.323 8.72443 16.2644 8.68035C16.2427 8.66402 16.2214 8.64778 16.1982 8.63158C15.629 8.23176 14.6098 7.83689 13.628 8.00764C17.462 9.92435 16.4327 16.5248 11.12 16.2756C10.6469 16.2563 10.1793 16.1661 9.73299 16.0081C9.62742 15.9684 9.52305 15.9257 9.41988 15.8801C9.35973 15.8527 9.29966 15.825 9.24023 15.7943C9.24238 15.7957 9.2453 15.7974 9.24745 15.7987C9.98861 16.3044 13.6491 17.5399 17.4744 14.4252L17.4803 14.4114C17.5748 14.1872 18.8409 11.0379 16.4244 8.81127Z" fill="url(#paint9_radial_4111_3425)"/>
<path d="M6.7286 12.3064C6.7286 12.3064 7.22062 10.4731 10.2517 10.4731C10.5794 10.4731 11.5163 9.55869 11.5336 9.29354C11.5509 9.02838 9.59529 10.1075 7.53136 9.13649C5.30305 8.08803 3.6123 9.29354 3.6123 9.29354C3.6123 9.29354 4.25442 10.8818 6.13757 10.8818C5.94005 12.6243 6.86137 14.6563 9.09157 15.7219C9.14142 15.7457 9.18825 15.7717 9.23943 15.7946C7.93776 15.1218 6.86287 13.8504 6.7286 12.3064Z" fill="url(#paint10_radial_4111_3425)"/>
<path d="M21.3776 7.37882C20.9144 6.26445 19.9761 5.06139 19.2393 4.68117C19.8389 5.85677 20.186 7.03607 20.3186 7.91618C20.3186 7.9179 20.3193 7.9222 20.3207 7.93393C19.1154 4.9297 17.0716 3.7183 15.4027 1.08063C15.3184 0.947258 15.2339 0.813542 15.1516 0.672564C15.1097 0.600593 15.0705 0.527032 15.0342 0.452053C14.9649 0.318165 14.9114 0.176671 14.8749 0.0304085C14.8754 0.0160572 14.8649 0.00368246 14.8506 0.00183484C14.8441 -5.57512e-05 14.8403 -0.000786206 14.8337 0.00110438C14.8322 0.00162 14.8269 0.00411214 14.8253 0.00471369C14.8229 0.00565898 14.8144 0.0105144 14.8134 0.0111159C12.0598 1.65936 11.2359 4.4723 11.1524 5.92367C11.2766 5.91508 11.4004 5.90464 11.5268 5.90464C13.5251 5.90464 15.2655 7.00328 16.1973 8.63172C15.6281 8.23191 14.609 7.83703 13.6271 8.00779C17.4612 9.9245 16.4319 16.5249 11.1191 16.2758C10.646 16.2565 10.1785 16.1663 9.73213 16.0083C9.62656 15.9686 9.52219 15.9259 9.41903 15.8803C9.35887 15.8529 9.2988 15.8252 9.23938 15.7945C9.24153 15.7959 9.24445 15.7976 9.2466 15.7989C9.19452 15.7739 9.14274 15.7481 9.09136 15.7216C9.1412 15.7454 9.18803 15.7714 9.23925 15.7943C7.93745 15.1216 6.86257 13.8501 6.72833 12.3062C6.72833 12.3062 7.22036 10.4728 10.2515 10.4728C10.5792 10.4728 11.516 9.55841 11.5333 9.29326C11.5294 9.20668 9.67413 8.4687 8.95089 7.75612C8.56444 7.37539 8.38092 7.19183 8.21842 7.05407C8.13025 6.97961 8.03808 6.91 7.94231 6.84559C7.69937 5.9956 7.68901 5.09594 7.9124 4.24058C6.81741 4.73918 5.9657 5.52729 5.34653 6.2232H5.34159C4.91904 5.68799 4.94882 3.92244 4.97292 3.55378C4.96785 3.53092 4.65771 3.71478 4.61706 3.74249C4.24419 4.00864 3.89559 4.30726 3.57535 4.63489C3.21107 5.0045 2.8782 5.4038 2.58026 5.82871C2.58026 5.82923 2.57995 5.82987 2.57978 5.83039C2.57978 5.82983 2.58008 5.82923 2.58026 5.82871C1.89483 6.80005 1.40869 7.89757 1.14998 9.05792C1.14487 9.08104 1.14057 9.10497 1.13563 9.12826C1.11557 9.2221 1.02538 9.69836 1.01279 9.80049C1.0118 9.80836 1.01373 9.79267 1.01279 9.80049C0.930502 10.2926 0.878039 10.7892 0.855609 11.2877C0.855609 11.3059 0.854492 11.3239 0.854492 11.3421C0.854492 17.2283 5.62698 22 11.5138 22C16.786 22 21.1635 18.1727 22.0205 13.1456C22.0386 13.0092 22.0531 12.872 22.069 12.7344C22.2809 10.9066 22.0455 8.98539 21.3776 7.37882ZM20.3202 7.92619C20.3207 7.92997 20.3214 7.93393 20.322 7.93766L20.3216 7.9365L20.3202 7.92619Z" fill="url(#paint11_linear_4111_3425)"/>
</g>
<defs>
<linearGradient id="paint0_linear_4111_3425" x1="19.4242" y1="3.40299" x2="2.30864" y2="19.9192" gradientUnits="userSpaceOnUse">
<stop offset="0.05" stop-color="#FFF339"/>
<stop offset="0.37" stop-color="#FF9800"/>
<stop offset="0.53" stop-color="#FF3346"/>
<stop offset="0.7" stop-color="#FF0D8A"/>
</linearGradient>
<radialGradient id="paint1_radial_4111_3425" cx="0" cy="0" r="1" gradientUnits="userSpaceOnUse" gradientTransform="translate(19.5298 4.68278) scale(21.8011 22.1682)">
<stop offset="0.13" stop-color="#FFBD44"/>
<stop offset="0.28" stop-color="#FF9800"/>
<stop offset="0.47" stop-color="#FF3450"/>
<stop offset="0.78" stop-color="#FF027B"/>
<stop offset="0.86" stop-color="#FF0083"/>
</radialGradient>
<radialGradient id="paint2_radial_4111_3425" cx="0" cy="0" r="1" gradientUnits="userSpaceOnUse" gradientTransform="translate(11.2857 11.6171) scale(22.3461 22.1682)">
<stop offset="0.3" stop-color="#AF0611"/>
<stop offset="0.35" stop-color="#CE1223" stop-opacity="0.74"/>
<stop offset="0.43" stop-color="#FD243B" stop-opacity="0.34"/>
<stop offset="0.5" stop-color="#FF304B" stop-opacity="0.09"/>
<stop offset="0.53" stop-color="#FF3450" stop-opacity="0"/>
</radialGradient>
<radialGradient id="paint3_radial_4111_3425" cx="0" cy="0" r="1" gradientUnits="userSpaceOnUse" gradientTransform="translate(13.6055 -1.02695) scale(7.15534 12.148)">
<stop offset="0.13" stop-color="#FFF339"/>
<stop offset="0.53" stop-color="#FF9800"/>
</radialGradient>
<radialGradient id="paint4_radial_4111_3425" cx="0" cy="0" r="1" gradientUnits="userSpaceOnUse" gradientTransform="translate(8.88303 17.3341) scale(9.4692 10.3784)">
<stop offset="0.35" stop-color="#008EE9"/>
<stop offset="0.67" stop-color="#A059FF"/>
<stop offset="1" stop-color="#DF36EA"/>
</radialGradient>
<radialGradient id="paint5_radial_4111_3425" cx="0" cy="0" r="1" gradientUnits="userSpaceOnUse" gradientTransform="translate(11.1598 9.32736) scale(5.02768 6.12266)">
<stop offset="0.21" stop-color="#A059FF" stop-opacity="0"/>
<stop offset="0.97" stop-color="#80008E" stop-opacity="0.6"/>
</radialGradient>
<radialGradient id="paint6_radial_4111_3425" cx="0" cy="0" r="1" gradientUnits="userSpaceOnUse" gradientTransform="translate(10.798 1.63491) scale(7.52787 7.55462)">
<stop offset="0.1" stop-color="#FFE200"/>
<stop offset="0.79" stop-color="#FF7232"/>
</radialGradient>
<radialGradient id="paint7_radial_4111_3425" cx="0" cy="0" r="1" gradientUnits="userSpaceOnUse" gradientTransform="translate(17.671 -3.31888) scale(35.9397 30.1694)">
<stop offset="0.11" stop-color="#FFF339"/>
<stop offset="0.46" stop-color="#FF9800"/>
<stop offset="0.72" stop-color="#FF3346"/>
<stop offset="0.9" stop-color="#FF0D8A"/>
</radialGradient>
<radialGradient id="paint8_radial_4111_3425" cx="0" cy="0" r="1" gradientUnits="userSpaceOnUse" gradientTransform="translate(14.632 -2.72886) rotate(83.9544) scale(23.6274 23.8042)">
<stop stop-color="#FFF339"/>
<stop offset="0.3" stop-color="#FF9800"/>
<stop offset="0.57" stop-color="#FF3346"/>
<stop offset="0.74" stop-color="#FF0D8A"/>
</radialGradient>
<radialGradient id="paint9_radial_4111_3425" cx="0" cy="0" r="1" gradientUnits="userSpaceOnUse" gradientTransform="translate(10.8757 4.35274) scale(20.6342 20.2718)">
<stop offset="0.14" stop-color="#FFF339"/>
<stop offset="0.48" stop-color="#FF9800"/>
<stop offset="0.66" stop-color="#FF3346"/>
<stop offset="0.9" stop-color="#FF0D8A"/>
</radialGradient>
<radialGradient id="paint10_radial_4111_3425" cx="0" cy="0" r="1" gradientUnits="userSpaceOnUse" gradientTransform="translate(16.2313 5.53734) scale(24.8017 22.1881)">
<stop offset="0.09" stop-color="#FFF339"/>
<stop offset="0.63" stop-color="#FF9800"/>
</radialGradient>
<linearGradient id="paint11_linear_4111_3425" x1="18.3747" y1="3.52914" x2="4.68604" y2="18.4857" gradientUnits="userSpaceOnUse">
<stop offset="0.17" stop-color="#FFF339" stop-opacity="0.8"/>
<stop offset="0.6" stop-color="#FFF339" stop-opacity="0"/>
</linearGradient>
<clipPath id="clip0_4111_3425">
<rect width="22" height="22" fill="white" transform="translate(0.5)"/>
</clipPath>
</defs>
</svg>
