<svg width="265" height="59" viewBox="0 0 265 59" fill="none" xmlns="http://www.w3.org/2000/svg">
<path d="M1 23L6.5 27L17 17.5L28.5 20.5L40 13L52 20.5L62.5 13L75 17.5L86 9.5L95.5 14H110.5L121 9.5L129 16C129.605 14.4863 130.907 12.606 132.64 12.6898C134.366 12.606 135.794 14.4863 136.5 16L155.5 5.5L168.5 7.5L180 5.5L191.5 11.5L202 1L219.5 9.5L227.5 8.5L238 4H250L259 8.5L264.5 4.5V56.5L1 58.5V23Z" fill="url(#paint0_linear_4018_2153)"/>
<path d="M1 23L6 27L17 17.5L28.5 20.5L40 13L52 20.5L62.5 13L75 17.5L86 9.5L95.5 14H110.5L121 9.5L129 16C130 13.8333 132.9 10.8 136.5 16L155.5 5.5L168.5 7.5L180 5.5L191.5 11.5L202 1L219.5 9.5L227.5 8.5L238 4H250L259 8.5L264.5 4.5V5.5" stroke="#C60723"/>
<circle cx="133" cy="16" r="3" stroke="#C60723" stroke-width="2"/>
<path d="M133 20L133 44" stroke="#C60723" stroke-width="0.2"/>
<defs>
<linearGradient id="paint0_linear_4018_2153" x1="129" y1="73.5" x2="133" y2="-67" gradientUnits="userSpaceOnUse">
<stop stop-color="#D9D9D9" stop-opacity="0"/>
<stop offset="0.491331" stop-color="#DE5555"/>
</linearGradient>
</defs>
</svg>
