<svg width="23" height="24" viewBox="0 0 23 24" fill="none" xmlns="http://www.w3.org/2000/svg">
<g clip-path="url(#clip0_4111_3443)">
<path opacity="0.53" d="M22.0382 12.8511C22.0382 18.4557 17.3199 22.9991 11.4996 22.9991C5.67929 22.9991 0.960938 18.4557 0.960938 12.8511C0.960938 7.24655 5.67925 2.70312 11.4996 2.70312C17.3199 2.70312 22.0382 7.24655 22.0382 12.8511Z" fill="black"/>
<path d="M22.4395 11.9556C22.4395 17.9976 17.5415 22.8956 11.4995 22.8956C5.45753 22.8956 0.55957 17.9976 0.55957 11.9556C0.55957 5.91363 5.45757 1.01562 11.4995 1.01562C17.5415 1.01562 22.4395 5.91363 22.4395 11.9556Z" fill="url(#paint0_linear_4111_3443)" stroke="#CDCDCD" stroke-width="0.755942" stroke-miterlimit="11.3386" stroke-linecap="round" stroke-linejoin="round"/>
<path d="M21.5824 11.9557C21.5824 17.5242 17.0682 22.0384 11.4997 22.0384C5.93118 22.0384 1.41699 17.5242 1.41699 11.9557C1.41699 6.38723 5.93118 1.87305 11.4997 1.87305C17.0682 1.873 21.5824 6.38719 21.5824 11.9557Z" fill="url(#paint1_radial_4111_3443)"/>
<path d="M11.4998 2.39844C11.4184 2.39844 11.3528 2.464 11.3528 2.54545V4.24108C11.3528 4.32253 11.4184 4.3881 11.4998 4.3881C11.5813 4.3881 11.6468 4.32253 11.6468 4.24108V2.54545C11.6468 2.464 11.5813 2.39844 11.4998 2.39844ZM10.5381 2.45924C10.5284 2.45821 10.5183 2.45821 10.5082 2.45937C10.4272 2.46782 10.3688 2.53983 10.3773 2.62085L10.4514 3.33021C10.4598 3.41119 10.5318 3.46963 10.6129 3.46117C10.6939 3.45271 10.7523 3.38071 10.7438 3.29969L10.6698 2.59032C10.6624 2.51943 10.6063 2.46585 10.5381 2.45924ZM12.4682 2.45992C12.4 2.46649 12.3439 2.52008 12.3365 2.59092L12.2619 3.30024C12.2533 3.38122 12.3117 3.45331 12.3927 3.46186C12.4737 3.47036 12.5457 3.41201 12.5543 3.33103L12.6289 2.62167C12.6374 2.54069 12.579 2.46864 12.498 2.46014C12.4879 2.45906 12.478 2.45906 12.4682 2.45992ZM9.55025 2.60252C9.54046 2.6026 9.53054 2.60355 9.52058 2.60565C9.44089 2.62253 9.39035 2.70024 9.40718 2.77993L9.75836 4.43876C9.77524 4.51845 9.85295 4.56899 9.93264 4.55216C10.0123 4.53529 10.0629 4.45761 10.046 4.37792L9.69486 2.71905C9.68009 2.64932 9.61873 2.60192 9.55029 2.60243L9.55025 2.60252ZM13.4561 2.60389C13.3876 2.6032 13.3262 2.65065 13.3114 2.72038L12.959 4.37899C12.9421 4.45864 12.9926 4.5364 13.0723 4.55336C13.1519 4.57028 13.2297 4.51974 13.2466 4.44009L13.599 2.78148C13.6159 2.70183 13.5654 2.62407 13.4857 2.60715C13.4758 2.60505 13.4658 2.60402 13.4561 2.60402V2.60389ZM8.60743 2.86834C8.58841 2.86658 8.56875 2.86868 8.54938 2.87512C8.47193 2.90029 8.4298 2.98285 8.45496 3.06031L8.67536 3.73867C8.70057 3.81613 8.78318 3.85825 8.86063 3.83309C8.93809 3.80793 8.98013 3.72528 8.95497 3.64782L8.73457 2.96946C8.71572 2.91136 8.66454 2.87315 8.60743 2.86834ZM14.3935 2.86868C14.3364 2.87354 14.2853 2.91171 14.2664 2.9698L14.0458 3.64808C14.0206 3.72554 14.0628 3.80815 14.1402 3.83335C14.2176 3.85851 14.3002 3.81643 14.3254 3.73902L14.546 3.06066C14.5712 2.9832 14.5291 2.90059 14.4516 2.87538C14.4323 2.86911 14.4125 2.86705 14.3935 2.86868ZM7.67514 3.20952C7.65604 3.20986 7.63671 3.21407 7.61812 3.22231C7.54376 3.25538 7.51044 3.34189 7.5435 3.41635L8.23221 4.96577C8.26527 5.04018 8.35179 5.07346 8.42624 5.0404C8.50061 5.00734 8.53401 4.92082 8.50091 4.84636L7.81215 3.29694C7.78729 3.24112 7.73242 3.2084 7.67514 3.20952ZM15.3364 3.21471C15.2791 3.21368 15.2241 3.24619 15.1993 3.30196L14.5084 4.85044C14.4753 4.92481 14.5084 5.01141 14.5828 5.04456C14.6572 5.07775 14.7438 5.04456 14.777 4.9702L15.4677 3.42171C15.5009 3.34735 15.4678 3.26074 15.3934 3.22759C15.3748 3.21931 15.3555 3.2151 15.3364 3.21471ZM6.80975 3.6674C6.78154 3.6653 6.75247 3.67161 6.72602 3.68689C6.65547 3.7276 6.63151 3.81716 6.67222 3.88771L7.02885 4.5054C7.06956 4.57595 7.15912 4.59991 7.22963 4.5592C7.30013 4.5185 7.32413 4.42893 7.28343 4.35839L6.92679 3.74069C6.90133 3.6966 6.8568 3.67066 6.80975 3.6674ZM16.1899 3.6674C16.1428 3.67053 16.0983 3.6966 16.0729 3.74069L15.7162 4.35839C15.6755 4.42893 15.6995 4.51845 15.77 4.5592C15.8406 4.59991 15.9301 4.57595 15.9708 4.5054L16.3275 3.88771C16.3682 3.81716 16.3442 3.72764 16.2737 3.68689C16.2472 3.67161 16.2181 3.66542 16.1899 3.6674ZM5.96942 4.19149C5.94113 4.19252 5.91279 4.20162 5.8881 4.21953C5.82219 4.26736 5.8076 4.3589 5.85543 4.42485L6.85105 5.79733C6.89888 5.86324 6.99051 5.87784 7.05642 5.83001C7.12233 5.78218 7.13693 5.69064 7.08909 5.62468L6.09338 4.2522C6.0635 4.21103 6.01657 4.1899 5.96942 4.19149ZM17.0407 4.19896C16.9936 4.1972 16.9466 4.21832 16.9167 4.2595L15.9191 5.63065C15.8712 5.69652 15.8857 5.7881 15.9516 5.83602C16.0174 5.88394 16.109 5.86951 16.1569 5.80369L17.1544 4.43254C17.2023 4.36667 17.1878 4.27509 17.122 4.22717C17.0973 4.20918 17.069 4.19999 17.0407 4.19896ZM5.21833 4.82142C5.1808 4.81931 5.1425 4.83185 5.11223 4.85912C5.05169 4.9136 5.04684 5.00618 5.10132 5.06672L5.57857 5.59686C5.63306 5.6574 5.72563 5.66225 5.78617 5.60777C5.84671 5.55328 5.85156 5.46066 5.79708 5.40012L5.31992 4.86998C5.29265 4.83971 5.25585 4.82335 5.21833 4.82142ZM17.7824 4.82245C17.7449 4.82455 17.7081 4.84078 17.6808 4.87105L17.2036 5.40107C17.1491 5.46161 17.1539 5.55422 17.2144 5.60871C17.2749 5.6632 17.3675 5.6583 17.422 5.59781L17.8993 5.06779C17.9538 5.00725 17.9489 4.91463 17.8884 4.86015C17.8581 4.83293 17.82 4.82052 17.7824 4.82245ZM4.4984 5.51292C4.46087 5.51502 4.42412 5.53125 4.3969 5.56152C4.34241 5.62207 4.34731 5.71464 4.4078 5.76913L5.66801 6.90356C5.72855 6.95805 5.82112 6.9532 5.87561 6.89266C5.93009 6.83212 5.92529 6.73954 5.86474 6.68506L4.6045 5.55062C4.57423 5.5234 4.53593 5.51094 4.4984 5.51292ZM18.5058 5.5179C18.4682 5.5158 18.4299 5.52829 18.3996 5.55551L17.1386 6.68905C17.0781 6.74349 17.0731 6.83607 17.1275 6.89665C17.182 6.95724 17.2746 6.96213 17.3352 6.90769L18.5962 5.77415C18.6568 5.7197 18.6617 5.62713 18.6072 5.56655C18.58 5.53628 18.5433 5.51988 18.5058 5.5179ZM3.89973 6.2827C3.85259 6.28093 3.80561 6.30219 3.77568 6.34336C3.72781 6.40927 3.74232 6.50081 3.80823 6.54869L4.38526 6.96793C4.45117 7.0158 4.54267 7.00133 4.59054 6.93547C4.63842 6.86956 4.62395 6.77797 4.55808 6.7301L3.98105 6.31086C3.95641 6.29287 3.92803 6.28373 3.89973 6.2827ZM19.1039 6.28806C19.0756 6.28909 19.0472 6.29815 19.0225 6.3161L18.4453 6.73495C18.3793 6.78278 18.3647 6.87441 18.4126 6.94032C18.4604 7.00623 18.552 7.02074 18.6179 6.97295L19.1952 6.5541C19.2611 6.50627 19.2756 6.41473 19.2278 6.34878C19.1979 6.3076 19.151 6.28647 19.1039 6.28806ZM3.3403 7.10382C3.29324 7.10696 3.24876 7.13302 3.2233 7.17712C3.1826 7.24766 3.20655 7.33719 3.2771 7.37793L4.7455 8.22573C4.81601 8.26643 4.90557 8.24247 4.94632 8.17192C4.98702 8.10138 4.96307 8.01186 4.89252 7.97111L3.42412 7.12332C3.39767 7.10803 3.36851 7.10185 3.3403 7.10382ZM19.6593 7.10382C19.6311 7.10172 19.6019 7.10803 19.5755 7.12332L18.1071 7.97111C18.0366 8.01181 18.0126 8.10138 18.0533 8.17192C18.094 8.24247 18.1836 8.26643 18.2541 8.22573L19.7226 7.37793C19.7931 7.33723 19.8171 7.24766 19.7764 7.17712C19.7509 7.13302 19.7064 7.10713 19.6593 7.10382ZM2.91733 7.97905C2.86005 7.97763 2.80509 8.01044 2.78023 8.06621C2.74704 8.14058 2.78023 8.22718 2.8546 8.26033L3.50604 8.55089C3.58041 8.58408 3.66701 8.55093 3.7002 8.47652C3.73339 8.40215 3.70016 8.31555 3.62579 8.2824L2.97439 7.99185C2.9558 7.98352 2.93644 7.97944 2.91733 7.97905ZM20.0852 7.98506C20.066 7.98541 20.0466 7.98961 20.028 7.99786L19.3765 8.28794C19.3021 8.32109 19.2688 8.40761 19.3019 8.48202C19.3351 8.55643 19.4217 8.5897 19.4961 8.55656L20.1477 8.26643C20.2221 8.23333 20.2553 8.14676 20.2222 8.07235C20.1973 8.01658 20.1424 7.98395 20.0852 7.98506ZM2.54034 8.89378C2.48324 8.89855 2.43206 8.93672 2.41312 8.99477C2.38792 9.07219 2.42987 9.15484 2.50732 9.18009L4.11952 9.70542C4.19694 9.73063 4.27964 9.68863 4.30484 9.61122C4.33005 9.5338 4.2881 9.45111 4.21064 9.4259L2.59844 8.90057C2.57912 8.89425 2.55936 8.89219 2.54034 8.89378ZM20.4615 8.90009C20.4424 8.89833 20.4228 8.90044 20.4034 8.90688L18.7909 9.43105C18.7134 9.45622 18.6713 9.53887 18.6965 9.61633C18.7217 9.69379 18.8043 9.73586 18.8818 9.71066L20.4943 9.18648C20.5718 9.16132 20.6139 9.07867 20.5887 9.00121C20.5697 8.94312 20.5185 8.9049 20.4615 8.90009ZM2.30548 9.85403C2.23699 9.85334 2.17559 9.90087 2.16078 9.97056C2.14386 10.0502 2.19436 10.128 2.27405 10.1449L2.97173 10.2932C3.05138 10.3101 3.12914 10.2596 3.14606 10.18C3.16297 10.1003 3.11248 10.0226 3.03279 10.0056L2.33515 9.85733C2.32519 9.85523 2.31522 9.8542 2.30548 9.8542V9.85403ZM20.6945 9.85544C20.6847 9.85553 20.6748 9.85686 20.6648 9.85858L19.9672 10.0068C19.8875 10.0237 19.837 10.1014 19.8539 10.1811C19.8709 10.2607 19.9486 10.3113 20.0283 10.2944L20.7259 10.1462C20.8055 10.1293 20.8561 10.0515 20.8392 9.9718C20.8244 9.90212 20.763 9.85467 20.6945 9.85527L20.6945 9.85544ZM2.12767 10.8199C2.05949 10.8264 2.00337 10.8799 1.9959 10.9508C1.98736 11.0317 2.04562 11.1039 2.1266 11.1124L3.81283 11.2907C3.89381 11.2992 3.96594 11.2409 3.97448 11.16C3.98303 11.079 3.92472 11.0068 3.84374 10.9983L2.15752 10.82C2.14738 10.819 2.13742 10.819 2.12767 10.8199ZM20.8735 10.8326C20.8638 10.8316 20.8538 10.8316 20.8436 10.8327L19.1572 11.0087C19.0763 11.0172 19.0179 11.0892 19.0263 11.1702C19.0347 11.2512 19.1067 11.3096 19.1878 11.3011L20.8742 11.1251C20.9551 11.1167 21.0135 11.0447 21.0051 10.9636C20.9977 10.8928 20.9417 10.8392 20.8735 10.8326ZM2.09912 11.8086C2.01767 11.8086 1.95215 11.8742 1.95215 11.9556C1.95215 12.0371 2.01771 12.1026 2.09912 12.1026H2.81239C2.89384 12.1026 2.95945 12.0371 2.95945 11.9556C2.95945 11.8742 2.89384 11.8086 2.81239 11.8086H2.09912ZM20.1872 11.8086C20.1058 11.8086 20.0402 11.8742 20.0402 11.9556C20.0402 12.0371 20.1058 12.1026 20.1872 12.1026H20.9004C20.9819 12.1026 21.0475 12.0371 21.0475 11.9556C21.0475 11.8742 20.9819 11.8086 20.9004 11.8086H20.1872ZM3.84177 12.61C3.83202 12.609 3.82206 12.609 3.81192 12.6101L2.12544 12.7861C2.04446 12.7946 1.98607 12.8666 1.99448 12.9476C2.00294 13.0285 2.07495 13.087 2.15597 13.0785L3.84245 12.9025C3.92343 12.8941 3.98183 12.8221 3.97341 12.741C3.96598 12.6702 3.90995 12.6166 3.84177 12.61ZM19.1569 12.6204C19.0888 12.6269 19.0326 12.6804 19.0252 12.7512C19.0166 12.8322 19.0749 12.9044 19.1559 12.9129L20.8421 13.0912C20.9231 13.0997 20.9952 13.0414 21.0037 12.9604C21.0123 12.8795 20.954 12.8073 20.873 12.7988L19.1869 12.6205C19.1767 12.6195 19.1667 12.6195 19.1569 12.6204ZM3.00114 13.6135C2.99135 13.6136 2.98144 13.6145 2.97147 13.6166L2.27379 13.7648C2.19414 13.7817 2.1436 13.8595 2.16052 13.9392C2.17744 14.0188 2.2552 14.0694 2.33485 14.0524L3.03253 13.9043C3.11218 13.8874 3.16272 13.8096 3.14576 13.73C3.13094 13.6602 3.06959 13.6128 3.0011 13.6134L3.00114 13.6135ZM19.9983 13.6149C19.9298 13.6142 19.8684 13.6616 19.8536 13.7314C19.8367 13.811 19.8872 13.8888 19.9668 13.9057L20.6645 14.054C20.7442 14.0709 20.8219 14.0205 20.8388 13.9408C20.8557 13.8612 20.8053 13.7833 20.7256 13.7664L20.028 13.6181C20.018 13.616 20.008 13.615 19.9983 13.615V13.6149ZM4.17599 14.1938C4.15697 14.1921 4.1373 14.1942 4.11794 14.2006L2.50539 14.7248C2.42793 14.75 2.38586 14.8326 2.41106 14.9101C2.43626 14.9875 2.51887 15.0296 2.59633 15.0044L4.20883 14.4802C4.28629 14.4551 4.32841 14.3724 4.30325 14.295C4.28432 14.2369 4.23309 14.1987 4.17599 14.1938ZM18.822 14.1991C18.7649 14.2039 18.7137 14.242 18.6948 14.3001C18.6696 14.3775 18.7116 14.4602 18.789 14.4854L20.4012 15.0107C20.4786 15.0359 20.5613 14.9939 20.5865 14.9165C20.6117 14.8391 20.5697 14.7564 20.4923 14.7312L18.8801 14.2059C18.8608 14.1996 18.8411 14.1975 18.822 14.1991ZM3.56066 15.3419C3.54155 15.3423 3.52223 15.3464 3.50364 15.3547L2.85198 15.6448C2.77757 15.6779 2.74438 15.7645 2.77748 15.8389C2.81063 15.9133 2.89715 15.9465 2.97156 15.9134L3.62322 15.6233C3.69763 15.5902 3.73082 15.5036 3.69771 15.4292C3.67285 15.3735 3.61793 15.3408 3.56066 15.3419ZM19.4366 15.3475C19.3794 15.3461 19.3244 15.3789 19.2995 15.4347C19.2663 15.5091 19.2995 15.5957 19.3739 15.6288L20.0253 15.9194C20.0997 15.9525 20.1863 15.9194 20.2195 15.845C20.2526 15.7706 20.2195 15.684 20.1451 15.6509L19.4937 15.3603C19.4751 15.352 19.4557 15.3479 19.4366 15.3475ZM4.82936 15.6661C4.80115 15.664 4.772 15.6703 4.74555 15.6856L3.27714 16.5334C3.20664 16.5741 3.18264 16.6637 3.22334 16.7342C3.26405 16.8048 3.35361 16.8287 3.42416 16.788L4.89256 15.9403C4.96307 15.8996 4.98707 15.81 4.94636 15.7394C4.92086 15.6953 4.87638 15.6694 4.82936 15.6661ZM18.1703 15.6661C18.1233 15.6693 18.0787 15.6953 18.0533 15.7394C18.0126 15.81 18.0365 15.8996 18.1071 15.9403L19.5755 16.788C19.646 16.8287 19.7356 16.8048 19.7763 16.7342C19.8171 16.6637 19.7931 16.5741 19.7225 16.5334L18.2541 15.6856C18.2277 15.6703 18.1985 15.6641 18.1703 15.6661ZM4.46311 16.9103C4.43481 16.9113 4.40647 16.9204 4.38178 16.9384L3.8045 17.3572C3.73859 17.4051 3.72399 17.4966 3.77182 17.5626C3.81965 17.6285 3.91119 17.6431 3.9771 17.5952L4.55443 17.1764C4.62034 17.1286 4.63494 17.037 4.58711 16.9711C4.55723 16.9298 4.51021 16.9086 4.46311 16.9103ZM18.5331 16.9152C18.4859 16.9134 18.4389 16.9347 18.409 16.9759C18.3611 17.0417 18.3757 17.1334 18.4416 17.1812L19.0186 17.6005C19.0845 17.6483 19.176 17.6338 19.2239 17.5679C19.2718 17.502 19.2573 17.4105 19.1914 17.3626L18.6144 16.9434C18.5897 16.9254 18.5614 16.9162 18.5331 16.9152ZM5.77054 16.9659C5.73301 16.9638 5.69476 16.9763 5.66444 17.0036L4.40342 18.1371C4.34284 18.1915 4.33795 18.2841 4.39239 18.3447C4.44683 18.4053 4.53941 18.4102 4.59999 18.3557L5.86101 17.2222C5.92159 17.1678 5.92649 17.0752 5.87204 17.0146C5.84486 16.9843 5.80807 16.968 5.77054 16.9659ZM17.2256 16.97C17.1881 16.9721 17.1513 16.9883 17.124 17.0186C17.0695 17.0791 17.0744 17.1717 17.1349 17.2262L18.3951 18.3606C18.4556 18.4151 18.5483 18.4103 18.6028 18.3497C18.6572 18.2892 18.6523 18.1966 18.5918 18.1421L17.3316 17.0077C17.3013 16.9805 17.2631 16.9681 17.2256 16.97ZM6.96685 18.0469C6.91975 18.0451 6.87269 18.0663 6.84276 18.1074L5.84529 19.4786C5.79738 19.5444 5.8118 19.636 5.87763 19.684C5.94349 19.7319 6.03508 19.7174 6.08299 19.6516L7.08046 18.2804C7.12838 18.2146 7.11396 18.123 7.04813 18.0751C7.02344 18.0571 6.99511 18.0479 6.96685 18.0469ZM16.0246 18.0531C15.9963 18.0541 15.968 18.0632 15.9433 18.0811C15.8774 18.1289 15.8628 18.2205 15.9106 18.2864L16.9062 19.6589C16.9541 19.7248 17.0456 19.7394 17.1115 19.6916C17.1774 19.6438 17.192 19.5522 17.1442 19.4863L16.1486 18.1138C16.1187 18.0726 16.0717 18.0514 16.0246 18.0531ZM5.67917 18.2648C5.64164 18.2669 5.60485 18.2832 5.57758 18.3134L5.10034 18.8435C5.04585 18.904 5.05066 18.9966 5.1112 19.0511C5.17174 19.1056 5.26431 19.1007 5.3188 19.0402L5.79609 18.5101C5.85057 18.4496 5.84568 18.357 5.78518 18.3025C5.75495 18.2753 5.71674 18.2629 5.67917 18.2648ZM17.3196 18.2655C17.282 18.2634 17.2438 18.276 17.2136 18.3032C17.153 18.3577 17.1482 18.4503 17.2026 18.5108L17.6798 19.041C17.7343 19.1015 17.8268 19.1064 17.8874 19.0519C17.9479 18.9974 17.9528 18.9048 17.8983 18.8442L17.4211 18.3142C17.3939 18.2838 17.3571 18.2675 17.3196 18.2655ZM8.35977 18.8535C8.3025 18.8521 8.24762 18.8849 8.22272 18.9407L7.53186 20.4892C7.49867 20.5636 7.53182 20.6502 7.60623 20.6833C7.68059 20.7165 7.7672 20.6833 7.80035 20.6089L8.4912 19.0605C8.52439 18.9861 8.49125 18.8995 8.41684 18.8663C8.39829 18.858 8.37888 18.8539 8.35977 18.8535ZM14.6306 18.8578C14.6115 18.8581 14.592 18.8623 14.5735 18.8706C14.4991 18.9036 14.4658 18.9901 14.4988 19.0646L15.1875 20.614C15.2206 20.6884 15.3072 20.7217 15.3816 20.6886C15.4559 20.6556 15.4893 20.5691 15.4562 20.4946L14.7675 18.9452C14.7427 18.8894 14.6878 18.8567 14.6306 18.8578ZM7.14581 19.3323C7.0988 19.3354 7.05427 19.3615 7.02881 19.4056L6.67218 20.0233C6.63147 20.0938 6.65543 20.1834 6.72598 20.2241C6.79648 20.2648 6.88604 20.2408 6.92675 20.1703L7.28338 19.5526C7.32409 19.4821 7.30013 19.3925 7.22958 19.3518C7.20318 19.3365 7.17402 19.3303 7.14581 19.3323ZM15.8538 19.3323C15.8256 19.3302 15.7965 19.3365 15.7701 19.3518C15.6996 19.3925 15.6755 19.4821 15.7163 19.5526L16.0729 20.1703C16.1136 20.2408 16.2032 20.2648 16.2737 20.2241C16.3443 20.1834 16.3682 20.0938 16.3275 20.0233L15.9709 19.4056C15.9454 19.3615 15.9008 19.3356 15.8538 19.3323ZM9.89769 19.3545C9.82921 19.3538 9.76785 19.4012 9.75304 19.4709L9.40065 21.1296C9.38374 21.2092 9.43423 21.287 9.51392 21.3039C9.59357 21.3208 9.67133 21.2703 9.68825 21.1907L10.0406 19.532C10.0575 19.4524 10.0071 19.3746 9.92736 19.3577C9.9174 19.3556 9.90744 19.3546 9.89769 19.3546V19.3545ZM13.0967 19.3555C13.0869 19.3556 13.0771 19.3565 13.0671 19.3586C12.9874 19.3755 12.9369 19.4532 12.9537 19.5329L13.3049 21.1917C13.3218 21.2714 13.3995 21.322 13.4792 21.3051C13.5588 21.2882 13.6094 21.2105 13.5926 21.1308L13.2413 19.4721C13.2265 19.4023 13.1652 19.3549 13.0967 19.3555ZM11.4998 19.5228C11.4184 19.5228 11.3528 19.5883 11.3528 19.6698V21.3654C11.3528 21.4469 11.4184 21.5124 11.4998 21.5124C11.5813 21.5124 11.6468 21.4469 11.6468 21.3654V19.6698C11.6468 19.5883 11.5813 19.5228 11.4998 19.5228ZM8.80138 20.0707C8.74428 20.0755 8.69305 20.1137 8.67416 20.1718L8.45368 20.8502C8.42847 20.9276 8.47059 21.0102 8.54801 21.0354C8.62547 21.0606 8.70808 21.0185 8.73328 20.941L8.95376 20.2627C8.97897 20.1853 8.93685 20.1027 8.85943 20.0775C8.84011 20.0712 8.82045 20.0691 8.80138 20.0707ZM14.1971 20.071C14.178 20.0693 14.1584 20.0714 14.139 20.0778C14.0616 20.1029 14.0194 20.1856 14.0446 20.263L14.265 20.9414C14.2902 21.0189 14.3728 21.0609 14.4503 21.0357C14.5277 21.0106 14.5698 20.928 14.5447 20.8505L14.3242 20.1722C14.3053 20.1141 14.2542 20.0759 14.1971 20.071ZM10.5771 20.4488C10.5089 20.4554 10.4527 20.5089 10.4453 20.5798L10.3708 21.2892C10.3622 21.3701 10.4206 21.4422 10.5016 21.4507C10.5826 21.4592 10.6547 21.4008 10.6632 21.3199L10.7378 20.6105C10.7463 20.5296 10.6879 20.4575 10.6069 20.4489C10.5968 20.4479 10.5868 20.4479 10.5771 20.4488ZM12.4166 20.4496C12.4069 20.4485 12.3969 20.4485 12.3868 20.4497C12.3058 20.4581 12.2473 20.5302 12.2558 20.6111L12.3299 21.3206C12.3384 21.4016 12.4104 21.4599 12.4914 21.4515C12.5724 21.443 12.6308 21.371 12.6223 21.29L12.5483 20.5806C12.5409 20.5098 12.4848 20.4562 12.4166 20.4496Z" fill="#F4F1F2"/>
<path opacity="0.409" d="M18.3896 6.0752L10.3469 10.7481L5.26172 18.7536L12.7009 13.2435L18.3896 6.0752Z" fill="black"/>
<path d="M12.652 13.1624L10.3467 10.7483L18.5245 5.24707L12.652 13.1624Z" fill="#FF504F"/>
<path d="M12.6524 13.1622L10.3471 10.748L4.47461 18.6634L12.6524 13.1622Z" fill="#F0F0F0"/>
<path d="M4.47461 18.6634L12.6524 13.1623L11.4998 11.9551L4.47461 18.6634Z" fill="#B5B5B5"/>
<path d="M18.5242 5.24707L11.499 11.9554L12.6516 13.1625L12.6517 13.1624L18.5242 5.24707Z" fill="#C43E3D"/>
</g>
<defs>
<linearGradient id="paint0_linear_4111_3443" x1="11.4996" y1="22.8953" x2="11.4996" y2="1.01539" gradientUnits="userSpaceOnUse">
<stop stop-color="#BDBDBD"/>
<stop offset="1" stop-color="white"/>
</linearGradient>
<radialGradient id="paint1_radial_4111_3443" cx="0" cy="0" r="1" gradientUnits="userSpaceOnUse" gradientTransform="translate(11.5449 10.4925) scale(10.9397)">
<stop stop-color="#00C2E8"/>
<stop offset="0.25" stop-color="#00B8ED"/>
<stop offset="0.5" stop-color="#00AFF3"/>
<stop offset="0.75" stop-color="#0086FC"/>
<stop offset="1" stop-color="#007EE0"/>
</radialGradient>
<clipPath id="clip0_4111_3443">
<rect width="23" height="24" fill="white"/>
</clipPath>
</defs>
</svg>
